<?xml version="1.0" encoding="UTF-8" standalone="no"?>
<svg
   xmlns:dc="http://purl.org/dc/elements/1.1/"
   xmlns:cc="http://creativecommons.org/ns#"
   xmlns:rdf="http://www.w3.org/1999/02/22-rdf-syntax-ns#"
   xmlns:svg="http://www.w3.org/2000/svg"
   xmlns="http://www.w3.org/2000/svg"
   xmlns:sodipodi="http://sodipodi.sourceforge.net/DTD/sodipodi-0.dtd"
   xmlns:inkscape="http://www.inkscape.org/namespaces/inkscape"
   width="15cm"
   height="10cm"
   viewBox="58 128 287 191"
   id="svg2"
   version="1.1"
   inkscape:version="0.47 r22583"
   sodipodi:docname="indep-code-adr-logique.dia">
  <metadata
     id="metadata132">
    <rdf:RDF>
      <cc:Work
         rdf:about="">
        <dc:format>image/svg+xml</dc:format>
        <dc:type
           rdf:resource="http://purl.org/dc/dcmitype/StillImage" />
        <dc:title></dc:title>
      </cc:Work>
    </rdf:RDF>
  </metadata>
  <defs
     id="defs130">
    <inkscape:perspective
       sodipodi:type="inkscape:persp3d"
       inkscape:vp_x="0 : 177.16536 : 1"
       inkscape:vp_y="0 : 1000 : 0"
       inkscape:vp_z="531.49603 : 177.16536 : 1"
       inkscape:persp3d-origin="265.74802 : 118.11024 : 1"
       id="perspective134" />
  </defs>
  <sodipodi:namedview
     pagecolor="#ffffff"
     bordercolor="#666666"
     borderopacity="1"
     objecttolerance="10"
     gridtolerance="10"
     guidetolerance="10"
     inkscape:pageopacity="0"
     inkscape:pageshadow="2"
     inkscape:window-width="1272"
     inkscape:window-height="480"
     id="namedview128"
     showgrid="false"
     inkscape:zoom="0.68015554"
     inkscape:cx="23.891571"
     inkscape:cy="177.16536"
     inkscape:window-x="0"
     inkscape:window-y="24"
     inkscape:window-maximized="0"
     inkscape:current-layer="svg2" />
  <text
     style="fill: #000000;text-anchor:start;font-size:12.8;font-family:sanserif;font-style:normal;font-weight:normal"
     x="60"
     y="140"
     id="text4">
    <tspan
       x="60"
       y="140"
       id="tspan6">Adresses physiques</tspan>
    <tspan
       x="60"
       y="156"
       id="tspan8" />
  </text>
  <g
     id="g10"
     style="fill:#e6e6e6">
    <rect
       style="fill:#e6e6e6"
       x="60"
       y="200"
       width="280"
       height="40"
       rx="2.35099e-37"
       ry="2.35099e-37"
       id="rect12" />
    <rect
       style="fill:#e6e6e6;fill-opacity:0;stroke-width:2;stroke-linejoin:round;stroke:#000000"
       x="60"
       y="200"
       width="280"
       height="40"
       rx="2.35099e-37"
       ry="2.35099e-37"
       id="rect14" />
  </g>
  <text
     style="fill: #000000;text-anchor:start;font-size:12.8;font-family:sanserif;font-style:normal;font-weight:normal"
     x="60"
     y="160"
     id="text16">
    <tspan
       x="60"
       y="160"
       id="tspan18">0</tspan>
  </text>
  <text
     style="fill: #000000;text-anchor:start;font-size:12.8;font-family:sanserif;font-style:normal;font-weight:normal"
     x="320"
     y="160"
     id="text20">
    <tspan
       x="320"
       y="160"
       id="tspan22">64K</tspan>
  </text>
  <g
     id="g24"
     style="fill:#ececec">
    <rect
       style="fill:#ececec"
       x="60"
       y="200"
       width="40"
       height="40"
       rx="2.35099e-37"
       ry="2.35099e-37"
       id="rect26" />
    <rect
       style="fill:#ececec;fill-opacity:0;stroke-width:2;stroke-linejoin:round;stroke:#000000"
       x="60"
       y="200"
       width="40"
       height="40"
       rx="2.35099e-37"
       ry="2.35099e-37"
       id="rect28" />
  </g>
  <g
     id="g30"
     style="fill:#55ff99">
    <rect
       style="fill:#55ff99"
       x="80"
       y="200"
       width="80"
       height="40"
       rx="2.35099e-37"
       ry="2.35099e-37"
       id="rect32" />
    <rect
       style="fill:#55ff99;fill-opacity:0;stroke-width:2;stroke-linejoin:round;stroke:#000000"
       x="80"
       y="200"
       width="80"
       height="40"
       rx="2.35099e-37"
       ry="2.35099e-37"
       id="rect34" />
  </g>
  <text
     style="fill: #000000;text-anchor:start;font-size:12.8;font-family:sanserif;font-style:normal;font-weight:normal"
     x="80"
     y="220"
     id="text36">
    <tspan
       x="80"
       y="220"
       id="tspan38" />
  </text>
  <text
     style="fill: #000000;text-anchor:start;font-size:12.8;font-family:sanserif;font-style:normal;font-weight:normal"
     x="220"
     y="220"
     id="text40">
    <tspan
       x="220"
       y="220"
       id="tspan42">prog.exe</tspan>
  </text>
  <text
     style="fill: #000000;text-anchor:start;font-size:12.8;font-family:sanserif;font-style:normal;font-weight:normal"
     x="240"
     y="220"
     id="text44">
    <tspan
       x="240"
       y="220"
       id="tspan46">P3</tspan>
  </text>
  <g
     id="g48"
     style="fill:#55ff99">
    <rect
       style="fill:#55ff99"
       x="200"
       y="200"
       width="80"
       height="40"
       rx="2.35099e-37"
       ry="2.35099e-37"
       id="rect50" />
    <rect
       style="fill:#55ff99;fill-opacity:0;stroke-width:2;stroke-linejoin:round;stroke:#000000"
       x="200"
       y="200"
       width="80"
       height="40"
       rx="2.35099e-37"
       ry="2.35099e-37"
       id="rect52" />
  </g>
  <text
     style="font-size:12.80000019px;font-style:normal;font-weight:normal;text-anchor:start;fill:#000000;font-family:sanserif"
     x="211.83438"
     y="222.25313"
     id="text54">
    <tspan
       x="211.83438"
       y="222.25313"
       id="tspan56">prog.exe</tspan>
  </text>
  <text
     style="font-size:12.80000019px;font-style:normal;font-weight:normal;text-anchor:start;fill:#000000;font-family:sanserif"
     x="91.834373"
     y="222.25313"
     id="text58">
    <tspan
       x="91.834373"
       y="222.25313"
       id="tspan60">prog.exe</tspan>
  </text>
  <text
     style="fill: #000000;text-anchor:start;font-size:12.8;font-family:sanserif;font-style:normal;font-weight:normal"
     x="200"
     y="160"
     id="text62">
    <tspan
       x="200"
       y="160"
       id="tspan64">32K</tspan>
  </text>
  <text
     style="fill: #000000;text-anchor:start;font-size:12.8;font-family:sanserif;font-style:normal;font-weight:normal"
     x="80"
     y="160"
     id="text66">
    <tspan
       x="80"
       y="160"
       id="tspan68">4K</tspan>
  </text>
  <text
     style="fill: #0000ff;text-anchor:start;font-size:12.8;font-family:sanserif;font-style:normal;font-weight:normal"
     x="80"
     y="280"
     id="text70">
    <tspan
       x="80"
       y="280"
       id="tspan72">0</tspan>
  </text>
  <text
     style="fill: #0000ff;text-anchor:start;font-size:12.8;font-family:sanserif;font-style:normal;font-weight:normal"
     x="140"
     y="280"
     id="text74">
    <tspan
       x="140"
       y="280"
       id="tspan76">16K</tspan>
  </text>
  <text
     style="fill: #ff0000;text-anchor:start;font-size:12.8;font-family:sanserif;font-style:normal;font-weight:normal"
     x="200"
     y="280"
     id="text78">
    <tspan
       x="200"
       y="280"
       id="tspan80">0</tspan>
  </text>
  <text
     style="fill: #ff0000;text-anchor:start;font-size:12.8;font-family:sanserif;font-style:normal;font-weight:normal"
     x="260"
     y="280"
     id="text82">
    <tspan
       x="260"
       y="280"
       id="tspan84">16K</tspan>
  </text>
  <g
     id="g86">
    <line
       style="fill: none; fill-opacity:0; stroke-width: 2; stroke-linejoin: round; stroke: #0000ff"
       x1="80"
       y1="260"
       x2="150.264"
       y2="260"
       id="line88" />
    <path
       style="fill: #0000ff"
       d="M 80 260 C 80,257.5 82.5,255 85,255 C 87.5,255 90,257.5 90,260 C 90,262.5 87.5,265 85,265 C 82.5,265 80,262.5 80,260z"
       id="path90" />
    <path
       style="fill: none; fill-opacity:0; stroke-width: 2; stroke: #0000ff"
       d="M 80 260 C 80,257.5 82.5,255 85,255 C 87.5,255 90,257.5 90,260 C 90,262.5 87.5,265 85,265 C 82.5,265 80,262.5 80,260"
       id="path92" />
    <polygon
       style="fill: #0000ff"
       points="157.764,260 147.764,265 150.264,260 147.764,255 "
       id="polygon94" />
    <polygon
       style="fill: none; fill-opacity:0; stroke-width: 2; stroke: #0000ff"
       points="157.764,260 147.764,265 150.264,260 147.764,255 "
       id="polygon96" />
  </g>
  <g
     id="g98">
    <line
       style="fill: none; fill-opacity:0; stroke-width: 2; stroke: #ff0000"
       x1="200"
       y1="260"
       x2="270.264"
       y2="260"
       id="line100" />
    <path
       style="fill: #ff0000"
       d="M 200 260 C 200,257.5 202.5,255 205,255 C 207.5,255 210,257.5 210,260 C 210,262.5 207.5,265 205,265 C 202.5,265 200,262.5 200,260z"
       id="path102" />
    <path
       style="fill: none; fill-opacity:0; stroke-width: 2; stroke: #ff0000"
       d="M 200 260 C 200,257.5 202.5,255 205,255 C 207.5,255 210,257.5 210,260 C 210,262.5 207.5,265 205,265 C 202.5,265 200,262.5 200,260"
       id="path104" />
    <polygon
       style="fill: #ff0000"
       points="277.764,260 267.764,265 270.264,260 267.764,255 "
       id="polygon106" />
    <polygon
       style="fill: none; fill-opacity:0; stroke-width: 2; stroke: #ff0000"
       points="277.764,260 267.764,265 270.264,260 267.764,255 "
       id="polygon108" />
  </g>
  <g
     id="g110">
    <line
       style="fill: none; fill-opacity:0; stroke-width: 2; stroke: #000000"
       x1="60"
       y1="180"
       x2="330.264"
       y2="180"
       id="line112" />
    <path
       style="fill: #000000"
       d="M 60 180 C 60,177.5 62.5,175 65,175 C 67.5,175 70,177.5 70,180 C 70,182.5 67.5,185 65,185 C 62.5,185 60,182.5 60,180z"
       id="path114" />
    <path
       style="fill: none; fill-opacity:0; stroke-width: 2; stroke: #000000"
       d="M 60 180 C 60,177.5 62.5,175 65,175 C 67.5,175 70,177.5 70,180 C 70,182.5 67.5,185 65,185 C 62.5,185 60,182.5 60,180"
       id="path116" />
    <polygon
       style="fill: #000000"
       points="337.764,180 327.764,185 330.264,180 327.764,175 "
       id="polygon118" />
    <polygon
       style="fill: none; fill-opacity:0; stroke-width: 2; stroke: #000000"
       points="337.764,180 327.764,185 330.264,180 327.764,175 "
       id="polygon120" />
  </g>
  <text
     style="fill: #000000;text-anchor:start;font-size:12.8;font-family:sanserif;font-style:normal;font-weight:normal"
     x="60"
     y="300"
     id="text122">
    <tspan
       x="60"
       y="300"
       id="tspan124">Adresses logiques</tspan>
    <tspan
       x="60"
       y="316"
       id="tspan126" />
  </text>
</svg>
